<svg xmlns="http://www.w3.org/2000/svg" xmlns:xlink="http://www.w3.org/1999/xlink" width="400" height="400" viewBox="0 0 400 400"><defs><clipPath id="b"><rect width="400" height="400"/></clipPath></defs><g id="a" clip-path="url(#b)"><rect width="400" height="400" fill="#ebeff7"/><path d="M81.828,88.08H8.5a4.422,4.422,0,0,1-4.421-4.421v-61.9A4.421,4.421,0,0,1,8.5,17.339h2.59L1.395,7.646,7.647,1.394,95.184,88.93l-6.253,6.253Zm-61.9-61.9H12.919V79.238H72.986L63.345,69.6A24.318,24.318,0,0,1,29.192,35.444ZM35.513,41.765a15.477,15.477,0,0,0,21.51,21.51ZM92.5,73.869l-8.843-8.843V26.182H66.733L57.89,17.339h-19.2L37.33,18.7l-6.253-6.253L35.025,8.5H61.553L70.4,17.339H88.081A4.421,4.421,0,0,1,92.5,21.761ZM45.032,26.4A24.338,24.338,0,0,1,72.39,53.757L62.054,43.42a15.545,15.545,0,0,0-6.685-6.686Z" transform="translate(151.605 151.606)" fill="#1a2947"/></g></svg>